<?xml version="1.0" encoding="UTF-8"?>
<svg id="Layer_1" data-name="Layer 1" xmlns="http://www.w3.org/2000/svg" viewBox="0 0 1080 1080">
  <defs>
    <style>
      .cls-1 {
        fill: #d4af35;
      }
    </style>
  </defs>
  <path class="cls-1" d="M342.8367,342.1555c8.3351-61.2914,15.0994-68.0554,76.3914-76.3919-61.292-8.3362-68.0562-15.1002-76.3914-76.3919-8.3373,61.2917-15.1015,68.0557-76.3924,76.3919,61.3066,8.3365,68.0551,15.1004,76.3924,76.3919Z"/>
  <path class="cls-1" d="M386.1438,246.1736c2.5511-18.759,4.6214-20.8292,23.3805-23.3807-18.7592-2.5514-20.8295-4.6216-23.3805-23.3807-2.5517,18.7591-4.622,20.8293-23.3809,23.3807,18.7637,2.5515,20.8291,4.6217,23.3809,23.3807Z"/>
  <path class="cls-1" d="M308.4159,352.1375c2.5511-18.759,4.6214-20.8292,23.3805-23.3807-18.7592-2.5514-20.8295-4.6216-23.3805-23.3807-2.5517,18.7591-4.622,20.8293-23.3809,23.3807,18.7637,2.5515,20.8291,4.6217,23.3809,23.3807Z"/>
  <path class="cls-1" d="M918.691,615.1441c6.1143-44.9608,11.0762-49.9225,56.0374-56.0378-44.9612-6.1151-49.9231-11.0768-56.0374-56.0378-6.1159,44.961-11.0778,49.9227-56.0382,56.0378,44.9719,6.1153,49.9223,11.077,56.0382,56.0378Z"/>
  <path class="cls-1" d="M950.4592,544.7359c1.8714-13.7608,3.39-15.2794,17.151-17.1511-13.7609-1.8716-15.2796-3.3902-17.151-17.1511-1.8718,13.7609-3.3905,15.2795-17.1512,17.1511,13.7642,1.8717,15.2794,3.3903,17.1512,17.1511Z"/>
  <path class="cls-1" d="M879.804,608.9497c1.8714-13.7608,3.39-15.2794,17.151-17.1511-13.7609-1.8716-15.2796-3.3902-17.151-17.1511-1.8718,13.7609-3.3905,15.2795-17.1512,17.1511,13.7642,1.8717,15.2794,3.3903,17.1512,17.1511Z"/>
  <path class="cls-1" d="M477.5441,792.5134l-149.746-86.0676-.331-.3439-121.0466-125.4708-.2365-.5066-56.3123-120.5251,59.8435-144.3243,133.5429-51.8609,135.9316,69.2569,136.8855-68.2812,133.1678,52.7183,58.8084,144.7958-57.4107,120.6478-122.2746,124.9557-150.8221,85.0058ZM331.966,701.1023l145.6102,83.6947,146.6646-82.6631,120.8239-123.4759,55.6592-116.9682-56.6181-139.4004-127.7165-50.5607-137.2309,68.4539-136.272-69.4281-128.0717,49.7354-57.6141,138.9477,54.8236,117.3403,119.9417,124.3244Z"/>
  <path class="cls-1" d="M459.8883,335.6021c.0331-9.2086,7.5239-16.6464,16.7315-16.6133,9.2081.0327,16.6459,7.5239,16.6133,16.7325-.0327,9.2076-7.5239,16.6454-16.732,16.6123-9.2081-.0327-16.6454-7.5239-16.6128-16.7315Z"/>
  <path class="cls-1" d="M729.8991,575.7196c.0327-9.2081,7.5239-16.6459,16.732-16.6133,9.2081.0331,16.6459,7.5244,16.6133,16.732-.0331,9.2081-7.5244,16.6459-16.732,16.6133-9.2081-.0327-16.6459-7.5239-16.6133-16.732Z"/>
  <path class="cls-1" d="M309.4913,696.8741c.0327-9.2081,7.5239-16.6459,16.732-16.6128,9.2081.0327,16.6459,7.5239,16.6128,16.732-.0327,9.2081-7.5239,16.6459-16.732,16.6128-9.2081-.0327-16.6459-7.5239-16.6128-16.732Z"/>
  <path class="cls-1" d="M607.2184,268.0269c-.0163,4.5207,3.6355,8.1988,8.1567,8.2151,4.5207.0163,8.1983-3.636,8.2146-8.1567.0158-4.5207-3.6355-8.1988-8.1562-8.2151-4.5212-.0158-8.1993,3.636-8.2151,8.1567Z"/>
  <path class="cls-1" d="M622.0554,697.9897c-.0163,4.5207,3.636,8.1988,8.1567,8.2151,4.5212.0158,8.1988-3.636,8.2146-8.1567.0163-4.5212-3.635-8.1993-8.1562-8.2151-4.5207-.0163-8.1993,3.6355-8.2151,8.1567Z"/>
  <path class="cls-1" d="M199.8971,577.4691c-.0163,4.5207,3.635,8.1983,8.1562,8.2146,4.5207.0163,8.1988-3.6355,8.2146-8.1562.0163-4.5212-3.6355-8.1988-8.1562-8.2151-4.5207-.0158-8.1988,3.6355-8.2146,8.1567Z"/>
  <path class="cls-1" d="M659.8813,820.9842l-119.92-68.9249-.2647-.2751-96.9371-100.4796-.189-.4062-45.0965-96.519,47.9236-115.5779,106.9442-41.5312,108.857,55.4628,109.6209-54.6811,106.6434,42.2179,47.0953,115.9554-45.9757,96.617-97.9202,100.0675-120.7814,68.0744ZM543.299,747.7806l116.608,67.024,117.4521-66.1978,96.7585-98.8825,44.573-93.6706-45.3409-111.6351-102.2781-40.4892-109.8975,54.8186-109.1301-55.5999-102.5626,39.8297-46.1379,111.272,43.9031,93.969,96.0524,99.5618Z"/>
  <path class="cls-1" d="M645.7419,455.0798c.0262-7.374,6.0253-13.33,13.3993-13.3038,7.374.0262,13.3305,6.0253,13.3043,13.3993-.0262,7.374-6.0258,13.3305-13.3993,13.3038-7.374-.0262-13.3305-6.0253-13.3043-13.3993Z"/>
  <path class="cls-1" d="M387.9112,550.5816c.0262-7.374,6.0253-13.33,13.3993-13.3038,7.374.0262,13.3305,6.0253,13.3043,13.3993-.0262,7.374-6.0258,13.3305-13.3993,13.3038-7.374-.0262-13.3305-6.0253-13.3043-13.3993Z"/>
  <path class="cls-1" d="M143.8489,460.9035c.0262-7.374,6.0253-13.33,13.3993-13.3038,7.374.0262,13.3305,6.0253,13.3043,13.3993-.0262,7.374-6.0258,13.3305-13.3993,13.3038-7.374-.0262-13.3305-6.0253-13.3043-13.3993Z"/>
  <path class="cls-1" d="M861.9725,647.3712c.0262-7.3735,6.0253-13.33,13.3998-13.3038,7.3735.0262,13.33,6.0253,13.3038,13.3993-.0267,7.3735-6.0258,13.3305-13.3993,13.3043-7.374-.0267-13.3305-6.0263-13.3043-13.3998Z"/>
  <path class="cls-1" d="M533.4978,748.7319c.0262-7.374,6.0253-13.33,13.3993-13.3038,7.3735.0262,13.3305,6.0253,13.3038,13.3993-.0262,7.374-6.0258,13.3305-13.3993,13.3038-7.374-.0262-13.33-6.0253-13.3038-13.3993Z"/>
  <path class="cls-1" d="M763.7268,400.9647c-.0129,3.6202,2.9117,6.5655,6.5324,6.5784,3.6197.0129,6.5655-2.9117,6.5784-6.5319.0129-3.6207-2.9117-6.566-6.5319-6.5789-3.6207-.0129-6.566,2.9117-6.5789,6.5324Z"/>
  <path class="cls-1" d="M546.8493,400.9647c-.0129,3.6202,2.9117,6.5655,6.5324,6.5784,3.6197.0129,6.5655-2.9117,6.5784-6.5319.0129-3.6207-2.9117-6.566-6.5319-6.5789-3.6207-.0129-6.566,2.9117-6.5789,6.5324Z"/>
  <path class="cls-1" d="M775.6091,745.2879c-.0134,3.6202,2.9112,6.5655,6.5314,6.5784,3.6207.0129,6.566-2.9117,6.5789-6.5319.0129-3.6207-2.9112-6.5655-6.5319-6.5784-3.6202-.0129-6.5655,2.9112-6.5784,6.5319Z"/>
  <path class="cls-1" d="M437.5348,648.7724c-.0129,3.6202,2.9117,6.5655,6.5324,6.5784,3.6202.0129,6.5655-2.9112,6.5784-6.5314.0129-3.6207-2.9117-6.566-6.5314-6.5794-3.6207-.0129-6.5665,2.9117-6.5794,6.5324Z"/>
</svg>