<?xml version="1.0" encoding="UTF-8"?>
<svg id="Layer_1" data-name="Layer 1" xmlns="http://www.w3.org/2000/svg" viewBox="0 0 1080 1080">
  <defs>
    <style>
      .cls-1 {
        fill: #d4af35;
      }
    </style>
  </defs>
  <path class="cls-1" d="M540.003,831.1636c-160.541,0-291.1517-130.6107-291.1517-291.1517s130.6107-291.1517,291.1517-291.1517,291.1517,130.6107,291.1517,291.1517-130.6107,291.1517-291.1517,291.1517ZM540.003,255.8163c-156.7056,0-284.1956,127.4899-284.1956,284.1956s127.4899,284.1955,284.1956,284.1955,284.1956-127.4899,284.1956-284.1955-127.4899-284.1956-284.1956-284.1956Z"/>
  <path class="cls-1" d="M1023.0624,351.698c20.3784,52.2765-179.3726,178.971-446.1604,282.9703-266.7878,103.9993-499.585,145.921-519.9635,93.6444-20.1359-51.6543,174.5092-175.8954,436.3921-279.1473-204.2659,80.7916-355.7626,177.6707-340.0329,218.022,15.9824,40.9994,198.4915,8.1242,407.6623-73.4148,209.1709-81.5391,365.7786-180.8585,349.7962-221.8579-15.7298-40.3513-192.8246-9.1387-397.8788,69.6309,262.6711-101.2299,490.049-141.5019,510.1849-89.8476Z"/>
  <path class="cls-1" d="M865.5329,276.1472c6.0231-44.2667,10.9004-49.1488,55.172-55.1671-44.2716-6.0185-49.1488-10.9007-55.172-55.1673-6.0185,44.2666-10.9006,49.1488-55.1722,55.1673,44.2713,6.0184,49.1489,10.9005,55.1722,55.1671Z"/>
  <path class="cls-1" d="M279.591,844.151c4.397-32.3324,7.9652-35.9005,40.2979-40.2982-32.3327-4.3975-35.901-7.9656-40.2979-40.2982-4.3981,32.3326-7.9664,35.9007-40.2985,40.2982,32.3404,4.3977,35.9004,7.9658,40.2985,40.2982Z"/>
  <path class="cls-1" d="M795.1476,316.4454c4.3975-32.3326,7.9652-35.9008,40.2978-40.2982-32.3326-4.3977-35.9003-7.9659-40.2978-40.2981-4.3981,32.3321-7.9659,35.9004-40.2985,40.2981,32.3404,4.3974,35.9081,7.9656,40.2985,40.2982Z"/>
</svg>