<?xml version="1.0" encoding="UTF-8"?>
<svg id="Layer_1" data-name="Layer 1" xmlns="http://www.w3.org/2000/svg" viewBox="0 0 1080 1080">
  <defs>
    <style>
      .cls-1 {
        fill: #fff;
      }
    </style>
  </defs>
  <path class="cls-1" d="M561.1894,787.7553c25.8223-189.8079,46.746-210.7394,236.5619-236.5539-189.8159-25.8142-210.7396-46.7455-236.5619-236.5538v.0003c-25.8141,189.8079-46.7381,210.7393-236.5536,236.5535,189.8155,25.8145,210.7396,46.746,236.5536,236.5539Z"/>
  <path class="cls-1" d="M760.4347,431.653c9.7887-71.9419,17.7152-79.8762,89.6651-89.6572-71.9499-9.7813-79.8764-17.7158-89.6651-89.6575-9.7813,71.9418-17.7156,79.8762-89.6655,89.6575,71.9495,9.781,79.8765,17.7155,89.6655,89.6572Z"/>
  <path class="cls-1" d="M319.5653,827.6855c9.7886-71.9419,17.715-79.8762,89.6649-89.6572-71.9493-9.7811-79.8764-17.7156-89.6649-89.6575-9.7809,71.942-17.7152,79.8764-89.6651,89.6575,71.9495,9.781,79.8765,17.7153,89.6651,89.6572Z"/>
  <path class="cls-1" d="M713.501,751.7844c4.397-32.3324,7.9652-35.9005,40.2979-40.2982-32.3327-4.3975-35.901-7.9656-40.2979-40.2982-4.3981,32.3326-7.9664,35.9007-40.2985,40.2982,32.3404,4.3977,35.9004,7.9658,40.2985,40.2982Z"/>
  <path class="cls-1" d="M414.6065,470.7697c4.3975-32.3326,7.9652-35.9008,40.2978-40.2982-32.3326-4.3977-35.9003-7.9659-40.2978-40.2981-4.3981,32.3321-7.9659,35.9004-40.2985,40.2981,32.3404,4.3974,35.9081,7.9656,40.2985,40.2982Z"/>
</svg>