<?xml version="1.0" encoding="UTF-8"?>
<svg id="Layer_1" data-name="Layer 1" xmlns="http://www.w3.org/2000/svg" viewBox="0 0 1080 1080">
  <defs>
    <style>
      .cls-1 {
        fill: #fff;
      }
    </style>
  </defs>
  <path class="cls-1" d="M579.3776,285.5983c4.3298-31.8218,7.8359-35.3313,39.6612-39.6577-31.8253-4.3265-35.3314-7.8361-39.6612-39.6578-4.3265,31.8217-7.8361,35.3313-39.6614,39.6578,31.8251,4.3264,35.3314,7.836,39.6614,39.6577Z"/>
  <path class="cls-1" d="M674.7868,691.9317c-1.821,0-3.575-.813-4.7523-2.2607-1.4585-1.7928-1.7833-4.2546-.8405-6.3645,6.9017-15.4413,13.3751-31.3121,19.2413-47.1723,6.3974-17.2967,12.2444-35.0469,17.3789-52.7581.463-1.5963,1.5548-2.9363,3.0252-3.712,23.5455-12.4239,48.5769-11.782,59.5171,1.5279,14.3089,17.4104-2.6381,46.2949-8.207,55.7869-21.3416,36.3725-61.8239,49.9534-84.0551,54.8116-.4349.0951-.8734.1412-1.3077.1412ZM716.8347,589.3461c-5.0341,17.1427-10.7178,34.2988-16.9087,51.0379-4.4998,12.1679-9.3532,24.3429-14.4788,36.3301,20.6434-6.2245,48.4722-19.2406,64.1348-45.9342,15.0345-25.6246,13.3607-36.8792,9.3096-41.8083-5.926-7.2092-23.0477-8.8534-42.0568.3745Z"/>
  <path class="cls-1" d="M790.8964,563.0716c-15.1009-18.5446-46.2988-17.1495-67.7457-13.4349l1.3147-29.1756c.035-.4481.0493-.8986.0608-1.3495l.0172-.3815c.0013-.0309-.0014-.061-.0004-.0918.0004-.0616.0064-.1224.0064-.184,0-.0843-.0081-.1677-.0089-.2518-.0019-.0469-.0021-.0942-.005-.1408-.2935-19.338-22.1972-36.138-63.4097-48.6027-38.6524-11.6899-89.929-18.1279-144.3846-18.1279s-105.7322,6.438-144.3843,18.1279c-41.2753,12.4836-63.1851,29.3156-63.4131,48.6908-.0012.0237-.0053.0465-.0062.0703-1.1213,29.3024,2.2404,58.1048,9.9922,85.6066,4.9614,17.6018,11.6394,34.3704,19.9221,50.1174-37.625,14.672-56.6419,31.1215-58.0543,50.1776-.7905,10.6687,4.1412,21.9027,14.6588,33.3904,17.4349,19.0426,50.245,38.1881,90.0181,52.5263,42.1846,15.2074,88.7714,23.9127,131.1782,24.5127,1.5847.0221,3.1709.0335,4.767.0335,45.2666-.0006,94.9909-9.0003,140.5939-25.4974,42.8728-15.5089,77.9442-35.9747,96.2223-56.1498,9.9406-10.9726,14.4327-21.3787,13.3517-30.9293-.9807-8.6611-6.5898-16.5617-16.6923-23.5477,14.7289-15.1262,27.6453-34.0667,35.6996-52.6871,11.4894-26.5623,11.5965-48.8302.3015-62.7018ZM516.7412,463.5828c115.1422,0,195.4107,28.8666,195.5532,54.8024l-.0594,1.3154c-.7451,7.5944-8.2609,15.3975-21.4189,22.6187-28.1129-16.571-90.4131-47.3457-174.0751-44.6665-78.099,2.501-135.2335,32.8887-162.5283,50.2298-21.1525-9.0409-33.0282-19.4527-33.0282-29.428,0-25.9536,80.3123-54.8716,195.5565-54.8716ZM759.4137,703.3865c.6586,5.8171-2.8882,13.1914-10.2577,21.3254-16.7275,18.4635-50.8621,38.2222-91.3103,52.8547-45.8537,16.5881-95.928,25.3748-141.0196,24.7341-41.0841-.5815-86.2568-9.0296-127.1968-23.7883-37.9671-13.6867-68.9984-31.6466-85.1369-49.2738-8.032-8.7729-12.0007-17.145-11.4769-24.2112.7191-9.7023,10.4574-24.4111,51.8607-40.2781,2.4539,4.1477,5.0214,8.2187,7.7088,12.2035,29.8594,44.2751,72.2045,75.1559,119.2347,86.9547,14.5308,3.6455,29.3671,5.4665,44.4479,5.4659,21.4595-.0006,43.408-3.6886,65.6265-11.0539,29.8226-9.8856,52.7979-24.1813,63.8387-31.8225,1.9669-1.3609,4.2599-2.1644,6.6325-2.3241,24.9159-1.678,61.1892-9.3299,92.4995-36.2565.3043-.2618.6069-.5303.9102-.7957,8.4207,5.2857,13.0141,10.7488,13.6385,16.2658ZM736.8763,678.6272c-28.7536,24.7275-62.2755,31.7692-85.334,33.3216-4.5776.3081-8.9973,1.8551-12.7817,4.4741-19.7736,13.6856-65.9821,40.7168-122.3299,40.7132-13.375-.0006-27.331-1.5248-41.6294-5.1118-86.6277-21.7327-148.5098-107.899-153.4861-209.6076,10.5381,9.5178,27.6925,17.9709,51.0417,25.0327,38.6521,11.6899,89.9287,18.128,144.3843,18.128s105.7322-6.4381,144.3846-18.128c22.639-6.8469,39.4395-15.0043,50.0468-24.1695l-.6122,13.5852c-.0855,1.8997.7161,3.7311,2.1691,4.9575,1.4531,1.2263,3.3943,1.7082,5.2512,1.3044,14.6032-3.1733,50.015-8.7769,63.4146,7.6803,17.9341,22.0248-9.489,77.6947-44.5191,107.82Z"/>
  <path class="cls-1" d="M491.2462,443.1116c11.4219-83.957,20.677-93.2155,104.6375-104.6339-83.9605-11.4183-93.2156-20.6768-104.6375-104.6339h0c-11.4182,83.9571-20.6735,93.2156-104.6338,104.6339,83.9603,11.4184,93.2156,20.677,104.6338,104.6339Z"/>
</svg>