<?xml version="1.0" encoding="UTF-8"?>
<svg id="Layer_1" data-name="Layer 1" xmlns="http://www.w3.org/2000/svg" viewBox="0 0 1080 1080">
  <defs>
    <style>
      .cls-1 {
        fill: none;
        stroke: #d4af35;
        stroke-linecap: round;
        stroke-linejoin: round;
        stroke-width: 15px;
      }
    </style>
  </defs>
  <path class="cls-1" d="M679.1618,676.2235c84.7268-26.09,150.2086-96.0705,169.9217-183.4062-38.8781,45.8088-96.8583,74.8845-161.6437,74.8845-117.0452,0-211.9283-94.883-211.9283-211.934,0-64.7797,29.0758-122.7656,74.8788-161.638-111.302,25.1252-194.4246,124.5982-194.4246,243.4931,0,52.631,16.2877,101.4541,44.1018,141.708"/>
  <path class="cls-1" d="M685.2076,779.9725c9.9279-13.5074,15.791-30.1776,15.791-48.2237,0-21.4543-8.2894-40.9732-21.8368-55.5254-14.8833-15.9851-36.1149-25.9872-59.6758-25.9872-11.4693,0-22.3792,2.3806-32.2785,6.6566-12.6967-55.2343-62.1592-96.4301-121.247-96.4301-24.2003,0-46.785,6.9078-65.8929,18.8681-27.5458,17.2297-47.864,44.9467-55.3599,77.562-9.8994-4.276-20.8092-6.6566-32.2785-6.6566-45.0152,0-81.5126,36.4974-81.5126,81.5126s36.4974,81.5126,81.5126,81.5126h17.7207"/>
  <path class="cls-1" d="M636.5857,757.8034c-9.0627,0-17.6836,1.8804-25.5068,5.2584-10.0329-43.6478-49.122-76.1996-95.8151-76.1996s-85.7823,32.5517-95.8151,76.1996c-7.8231-3.3779-16.4441-5.2584-25.507-5.2584-35.5736,0-64.4119,28.8382-64.4119,64.412s28.8383,64.412,64.4119,64.412h242.6439c35.5738,0,64.4121-28.8382,64.4121-64.412s-28.8383-64.412-64.4121-64.412Z"/>
</svg>