<?xml version="1.0" encoding="UTF-8"?>
<svg id="Layer_1" data-name="Layer 1" xmlns="http://www.w3.org/2000/svg" viewBox="0 0 1080 1080">
  <defs>
    <style>
      .cls-1 {
        fill: #fff;
      }
    </style>
  </defs>
  <path class="cls-1" d="M257.736,669.4918c5.4731-26.9755,27.8225-62.079,69.6279-71.7358,27.8751-6.439,51.9145,2.1769,73.4149,19.6067,13.3164,10.7952,23.4738,24.3082,32.0106,39.0702,5.6466,9.7643,12.141,18.8657,20.3809,26.6235,24.7946,23.3437,60.5959,24.2146,86.0075,1.4346,32.5125-29.1455,40.8269-72.2638,10.2584-113.1199-14.4992-19.3788-36.6499-25.605-60.5566-24.6028-13.1356.5507-25.6679,3.9591-37.8089,9.0577-.4502-2.495,1.5558-2.6797,2.6343-3.4767,20.9061-15.4505,40.871-31.8884,55.8123-53.534,8.1298-11.7777,12.9934-24.4072,9.9064-39.1277-3.8511-18.3645-18.8027-28.2687-37.266-24.4837-10.9824,2.2514-20.7132,7.2399-29.9117,13.4563-11.5162,7.7827-24.0942,12.9721-37.9934,14.156-31.9232,2.719-61.0382-16.1795-67.8634-57.1782-2.3242-13.9611-.6749-27.8741,2.6793-41.6379,1.3289,7.4,2.9789,14.5844,6.4791,21.2235,8.2514,15.6512,22.7763,19.8601,38.0667,10.9938,8.8803-5.1494,16.172-12.3909,24.317-18.5105,28.1798-21.1722,58.614-23.2181,90.0868-9.3128,31.1657,13.7696,48.7167,49.0694,43.3648,84.1107-4.0123,26.27-17.9757,46.823-36.615,64.7766-2.009,1.9351-4.0409,3.8464-7.0102,6.6703,6.7538.3416,12.3682.2632,17.9105,1.1006,7.7001,1.1633,15.4252,2.5106,22.36,5.9752,16.1785,8.0827,32.7887,6.8994,49.549,3.1038,14.5647-3.2984,27.4241-10.253,39.1032-19.4648,8.0047-6.3136,15.809-12.9024,24.0453-18.8978,39.4932-28.7481,105.0865-26.7241,139.6038,27.5308,31.793,49.9729,28.7893,129.9996-7.4813,176.7874-30.3834,39.1934-82.5855,52.0485-125.5995,30.9175-19.8735-9.763-33.4096-25.2849-40.3914-46.1408-10.6243-31.7367-7.3012-62.7528,6.4972-92.8306,3.5565-7.7525,8.4477-14.734,17.0284-20.431-2.3873,11.2971-4.9938,21.1123-6.0294,31.2164-1.1511,11.2308-1.2742,22.4241,1.0948,33.4939,6.7595,31.5853,36.8993,52.1803,69.6876,47.6696,36.3267-4.9975,57.4275-27.7292,69.0783-60.5916,8.3657-23.5963,9.3245-47.5867-.7314-71.0941-14.1098-32.9843-53.956-46.2307-85.3307-28.6628-6.9738,3.9049-13.4072,8.5956-19.479,13.7238-26.2236,22.1484-56.201,27.2268-88.9863,19.9549-2.1572-.4784-4.3289-.8917-7.6496-1.5721,8.3861,11.8293,13.6083,24.0087,16.8314,37.11,15.1249,61.4806-9.8187,118.2046-50.8711,147.7068-45.7246,32.86-99.0597,28.6912-139.194-10.7774-12.6594-12.4495-23.343-26.7406-36.423-38.7967-7.0611-6.5084-14.3865-12.6409-22.4947-17.8308-27.1973-17.4084-55.4816-19.8835-84.9782-6.3587-2.029.9303-4.0526,1.8724-6.0885,2.7873-.162.0728-.4009-.0254-1.0829-.0883Z"/>
  <path class="cls-1" d="M533.7879,341.3642c3.728,2.4165,6.3519,5.4523,9.1323,8.3328,17.9057,18.5506,38.3436,33.2254,64.1018,38.2557,30.4159,5.9399,57.6605-2.7767,82.5927-20.154,5.6845-3.962,11.2965-8.0321,17.0604-11.8747,4.285-2.8567,9.0933-4.6293,14.1631-5.5046,21.3319-3.6827,37.5214,12.8756,35.103,35.6682-1.3035,12.2853-7.6062,21.2653-17.6649,27.9223-21.5662,14.2729-45.9058,18.8105-71.0846,18.9773-42.6801.2827-79.006-14.5326-106.6379-47.9232-10.5614-12.7625-18.3496-27.415-26.5527-41.7429-.248-.4331-.129-1.0764-.2131-1.957Z"/>
  <path class="cls-1" d="M642.5182,369.9384c-15.2725.0627-26.6292-10.9562-26.6595-25.8665-.0309-15.2108,11.1226-26.6594,25.9653-26.6521,14.9777.0074,26.6842,11.7846,26.6803,26.8413-.0039,14.8812-10.867,25.6153-25.986,25.6774Z"/>
</svg>