<?xml version="1.0" encoding="UTF-8"?>
<svg id="Layer_1" data-name="Layer 1" xmlns="http://www.w3.org/2000/svg" viewBox="0 0 1080 1080">
  <defs>
    <style>
      .cls-1 {
        fill: #fff;
      }
    </style>
  </defs>
  <path class="cls-1" d="M387.8509,210.9059l136.3001-9.4371c1.8278-.1215,3.4088,1.2621,3.5303,3.0899.1117,1.6828-1.0526,3.1572-2.6647,3.4748l-174.6414,45.3505c-1.7701.4584-3.5789-.6046-4.0365-2.3751-.1122-.4329-.1331-.8677-.0748-1.2845,1.4559-10.431,6.5357-19.8441,13.9836-26.7963,7.3075-6.8213,16.9043-11.2819,27.6034-12.0222h0ZM488.941,210.5576l-100.6498,6.9685c-9.1126.6307-17.2915,4.4361-23.5266,10.2563-5.1403,4.7983-8.9574,10.9651-10.8882,17.8488l135.0645-35.0735h0ZM662.4116,191.8991l61.771-4.2794c12.3831-.8565,23.9891,3.4269,32.7118,11.0193,8.7211,7.5922,14.5635,18.5038,15.4223,30.8977l34.1569,493.3379c.1209,1.8277-1.2622,3.4091-3.0899,3.5306-1.6828.1112-3.1576-1.0525-3.4744-2.6648l-133.1456-512.7365c-.6634-2.5517-1.5676-4.9706-2.6785-7.2379-1.1379-2.3243-2.5101-4.51-4.0748-6.5345-1.1185-1.4478-.8521-3.529.5975-4.6466.5402-.4176,1.1689-.6416,1.8038-.6857h0ZM724.6225,194.24l-56.0534,3.881c.5156.8904,1.0038,1.8028,1.4609,2.737,1.3122,2.6759,2.3745,5.5123,3.1451,8.484l124.2101,478.3225-31.6878-457.6873c-.731-10.5479-5.7193-19.8467-13.1643-26.3281-7.4462-6.4819-17.3509-10.14-27.9106-9.4092h0ZM810.4912,780.9366l.4555,6.5459c.8571,12.3828-3.4269,23.9895-11.0186,32.7105-7.5928,8.7223-18.5058,14.5654-30.8996,15.424l-140.5509,9.7311c-1.8278.1215-3.4085-1.2621-3.5312-3.0899-.1105-1.6828,1.0525-3.1575,2.6661-3.4748l152.1334-39.5059c5.3765-1.3953,10.1974-3.8823,14.2878-7.1605,4.2592-3.4135,7.7256-7.6857,10.2042-12.4786.8366-1.6273,2.8374-2.2659,4.4634-1.4277,1.0715.5512,1.7144,1.6059,1.79,2.726h0ZM794.916,815.8324c5.8032-6.6651,9.3436-15.3004,9.4965-24.613-1.8672,2.2058-3.95,4.2395-6.2256,6.0634-4.7991,3.847-10.4621,6.7672-16.7803,8.4071l-117.7202,30.5695,104.9026-7.263c10.547-.7303,19.8468-5.7181,26.3271-13.164h0ZM397.1731,845.2023c-3.6403-3.7581-6.6454-8.1555-8.8189-13.0172-2.0953-4.6907-3.418-9.8097-3.7906-15.1987l-1.7783-25.6824c-.1221-1.8277,1.2615-3.4088,3.0892-3.5304,1.6827-.1117,3.1576,1.0526,3.4747,2.6644l13.4048,51.624c.4597,1.7706-.6042,3.5786-2.3744,4.037-1.1933.3088-2.4029-.0727-3.2063-.8966h0Z"/>
  <path class="cls-1" d="M390.4837,230.0437l32.2185-2.2303c1.8278-.1215,3.4088,1.2617,3.5312,3.0895.1108,1.6827-1.0535,3.1575-2.6652,3.4752l-50.9802,13.2378c-1.7702.4584-3.5791-.605-4.0371-2.3756-.2458-.9459-.0549-1.9026.4446-2.6585,2.3887-3.5919,5.5744-6.6177,9.3115-8.7979,3.6042-2.1034,7.7353-3.4328,12.1768-3.7403h0ZM670.7297,210.6433l53.48-3.7051c7.7239-.534,14.9608,2.137,20.3983,6.8689,5.4374,4.7333,9.0802,11.5404,9.616,19.274l27.2424,393.4965c.1231,1.8282-1.2618,3.4097-3.0882,3.5307-1.684.1118-3.1589-1.0521-3.4757-2.6642l-107.1589-412.6621c-.4584-1.7706.6051-3.5786,2.3761-4.037.2034-.0525.4084-.0852.61-.1017h0ZM724.6507,213.5584l-49.4904,3.4268,97.2178,374.3832-24.7753-357.8466c-.408-5.8874-3.1954-11.0819-7.3562-14.7043-4.1614-3.6222-9.6967-5.6671-15.5959-5.2592h0ZM788.902,802.3086c-2.2957,4.0134-5.5684,7.4385-9.5121,9.9244-3.8022,2.3958-8.2264,3.9155-12.9958,4.2453l-36.4635,2.5249c-1.8291.121-3.4097-1.2622-3.5323-3.0899-.1106-1.6829,1.0541-3.1572,2.6658-3.4753l50.6817-13.1605c.8525-.221,1.6941-.4718,2.5211-.7492.8495-.284,1.6815-.5954,2.4944-.931,1.6903-.695,3.627.1126,4.3219,1.8042.4034.9824.2995,2.0467-.1892,2.9029l.008.0043h0ZM765.9546,809.8581c2.9777-.2059,5.7777-1.0181,8.2815-2.306l-9.0979,2.3623.8164-.0563h0Z"/>
  <path class="cls-1" d="M291.8408,261.7404l326.3149-84.7371c12.0109-3.1195,24.2077-1.0417,34.1769,4.8176,9.972,5.8607,17.724,15.5073,20.8426,27.5211l140.5808,541.3693c3.1041,11.9983,1.0243,24.1769-4.8262,34.1358-5.8629,9.9724-15.5071,17.7223-27.5213,20.8428l-326.3159,84.7371c-12.0118,3.1185-24.2072,1.0417-34.1761-4.8176-9.9731-5.8606-17.7236-15.5067-20.8441-27.5211l-140.5708-541.3273c-3.118-12.0122-1.0415-24.2084,4.8181-34.1775,5.8597-9.9722,15.5076-17.7231,27.5211-20.8432h0ZM619.8178,183.4159l-326.3158,84.7374c-10.2454,2.6601-18.4719,9.2719-23.4715,17.779-5.0025,8.5111-6.7761,18.9194-4.1164,29.1666l140.5707,541.3277c2.6605,10.2458,9.2728,18.4727,17.7803,23.4718,8.511,5.0026,18.9183,6.7761,29.1652,4.116l326.0495-84.6678c.1638-.0575.3357-.1029.5117-.1345,10.1299-2.7021,18.2664-9.2748,23.2265-17.7143,4.9618-8.4424,6.7454-18.75,4.1786-28.9167-.0568-.1652-.1008-.3362-.1324-.5118l-140.5006-541.0657c-2.6596-10.245-9.2726-18.4721-17.7795-23.4723-8.5116-5.0017-18.9202-6.7764-29.1664-4.1155h0Z"/>
  <path class="cls-1" d="M297.9495,280.0678l323.7855-84.0805c7.4909-1.9445,15.0947-.6504,21.3089,3.003,6.2193,3.6541,11.0517,9.67,12.9975,17.1629l139.4216,536.9013c1.9458,7.49.6504,15.095-3.0018,21.3101-3.6538,6.2182-9.6697,11.0522-17.1635,12.9976l-323.7859,84.0803c-7.4895,1.945-15.0937.6499-21.3089-3.0029-6.2189-3.6542-11.0522-9.6702-12.9978-17.1631l-139.4217-536.9017c-1.9444-7.49-.6508-15.0938,3.0025-21.3098,3.6538-6.2181,9.6702-11.052,17.1635-12.9973h0ZM623.3977,202.4l-323.786,84.0803c-5.7243,1.4858-10.3214,5.1807-13.115,9.9336-2.795,4.7572-3.7876,10.5736-2.3001,16.2997l139.4211,536.9017c1.4857,5.7236,5.1808,10.3201,9.9337,13.1135,4.7567,2.7958,10.5731,3.7878,16.2992,2.3013l323.7868-84.0804c5.7227-1.4858,10.3202-5.1808,13.114-9.9336,2.795-4.7573,3.7861-10.5737,2.3003-16.2996l-139.4215-536.9018c-1.487-5.7235-5.1808-10.3206-9.9341-13.1134-4.7571-2.7958-10.5744-3.7879-16.2984-2.3012h0Z"/>
  <path class="cls-1" d="M529.5585,503.2783c-.1592.055-.3248.098-.494.1282-8.2348,2.2079-14.8252,7.5164-18.834,14.3374-4.0506,6.8929-5.4715,15.3328-3.3025,23.6845,2.168,8.3505,7.513,15.0307,14.4024,19.0785,6.8921,4.0501,15.3329,5.4714,23.6837,3.3034,8.3508-2.1685,15.0315-7.5147,19.0782-14.4039,4.011-6.8235,5.4425-15.1651,3.3664-23.4358-.055-.1592-.0975-.3239-.1273-.4936-2.2092-8.2349-7.5169-14.8236-14.3378-18.8323-6.8238-4.0102-15.1642-5.4429-23.435-3.3665h0ZM527.6884,496.9182c10.1034-2.6113,20.3123-.8861,28.6543,4.0156,8.3555,4.9106,14.8386,13.0084,17.4659,23.1261l.0101.0412c2.6119,10.1029.887,20.3135-4.0156,28.6547-4.9096,8.3563-13.0075,14.8392-23.1269,17.4668-10.1154,2.6264-20.3424.9041-28.6944-4.0047-8.356-4.9105-14.8387-13.0079-17.4671-23.1273-2.6265-10.1168-.9036-20.3429,4.0048-28.6955,4.9108-8.3554,13.0095-14.8391,23.1277-17.4664l.041-.0105h0Z"/>
  <path class="cls-1" d="M524.938,475.5372c.4584,1.7706-.605,3.5791-2.3743,4.0374-1.771.458-3.5791-.6054-4.0379-2.3757l-7.7593-29.879c-.4583-1.7702.6051-3.5786,2.3757-4.0374,1.7701-.4581,3.579.6051,4.0374,2.3756l7.7584,29.879h0Z"/>
  <path class="cls-1" d="M562.4805,620.1104c.4584,1.7706-.605,3.579-2.3752,4.0374-1.7701.4581-3.579-.605-4.0365-2.3756l-7.7583-29.8786c-.4589-1.7701.605-3.5786,2.3742-4.0369,1.7702-.4584,3.579.6051,4.0376,2.3752l7.7583,29.8786h0Z"/>
  <path class="cls-1" d="M478.4459,545.4006c1.7702-.4584,3.5782.6051,4.0376,2.3753.4576,1.7705-.6051,3.5789-2.3761,4.0373l-29.8787,7.7589c-1.7709.458-3.5788-.6051-4.0378-2.3756-.4575-1.7701.6058-3.5786,2.3766-4.037l29.8784-7.7589h0Z"/>
  <path class="cls-1" d="M623.0195,507.8582c1.7693-.4581,3.5781.605,4.0366,2.3756.4584,1.7701-.605,3.5789-2.376,4.0369l-29.8786,7.7589c-1.7702.4588-3.5774-.6047-4.037-2.3752-.4576-1.7701.6053-3.5791,2.376-4.037l29.8791-7.7591h0Z"/>
  <path class="cls-1" d="M487.4183,500.9574c1.5765.9247,2.1059,2.9532,1.181,4.5297-.9244,1.5766-2.9529,2.1055-4.5302,1.1811l-26.5079-15.5798c-1.5767-.9244-2.1052-2.9529-1.1812-4.5294.924-1.5768,2.9534-2.1059,4.5298-1.181l26.5085,15.5794h0Z"/>
  <path class="cls-1" d="M615.6862,576.3419c1.5774.9244,2.1052,2.9534,1.182,4.5299-.9252,1.5764-2.9546,2.1053-4.5302,1.181l-26.5088-15.5794c-1.5766-.9248-2.106-2.9533-1.1811-4.5302.9239-1.5765,2.9525-2.1055,4.5298-1.1806l26.5083,15.5794h0Z"/>
  <path class="cls-1" d="M569.3818,484.51c-.9249,1.5767-2.9535,2.1058-4.5298,1.1811-1.5765-.9244-2.1059-2.9534-1.1812-4.5299l15.5799-26.5084c.9245-1.5769,2.9529-2.1055,4.5293-1.1811,1.5766.9244,2.106,2.9528,1.1815,4.5298l-15.5797,26.5085h0Z"/>
  <path class="cls-1" d="M493.9971,612.7784c-.9248,1.5765-2.9533,2.105-4.5297,1.1812-1.5766-.9243-2.106-2.9534-1.1811-4.5298l15.5791-26.5094c.9252-1.5765,2.9537-2.1055,4.5301-1.181,1.5766.9244,2.106,2.9532,1.1807,4.5298l-15.5791,26.5091h0Z"/>
  <path class="cls-1" d="M573.9347,588.6317c-1.1038-1.4618-.8121-3.5428.6491-4.6466,1.4623-1.1033,3.5429-.8126,4.6467.6491l20.8193,27.571c1.1038,1.4618.8121,3.5425-.6492,4.6463-1.4614,1.1038-3.5428.8131-4.6467-.6492l-20.8192-27.5706h0Z"/>
  <path class="cls-1" d="M473.198,455.225c-1.1038-1.4619-.8131-3.5425.6492-4.6463,1.4614-1.1037,3.5428-.8125,4.6467.6493l20.8189,27.5706c1.1038,1.4618.8122,3.5424-.6491,4.6462-1.4623,1.1038-3.5429.813-4.6467-.6492l-20.819-27.5706h0Z"/>
  <path class="cls-1" d="M524.1762,598.9351c.2504-1.813,1.9244-3.0802,3.7382-2.8298,1.8134.2508,3.0811,1.9248,2.8307,3.7382l-4.7743,34.2169c-.2513,1.8135-1.9253,3.0806-3.7383,2.8302-1.8134-.2508-3.0811-1.9253-2.8307-3.7383l4.7744-34.2173h0Z"/>
  <path class="cls-1" d="M547.2766,433.37c.2513-1.8131,1.9253-3.0806,3.7387-2.8298,1.813.2503,3.0811,1.9247,2.8298,3.7378l-4.7747,34.2177c-.2496,1.8134-1.924,3.0807-3.7374,2.8303-1.8126-.2506-3.0811-1.9249-2.8306-3.7384l4.7742-34.2176h0Z"/>
  <path class="cls-1" d="M601.8438,546.1624c-1.8131-.2503-3.0814-1.9248-2.8299-3.7383.2506-1.8133,1.9244-3.0806,3.7378-2.8297l34.2166,4.7739c1.8138.2509,3.0806,1.9253,2.8315,3.7383-.2521,1.8135-1.9252,3.0807-3.7391,2.8302l-34.2169-4.7744h0Z"/>
  <path class="cls-1" d="M436.2796,523.062c-1.8135-.2509-3.0812-1.9252-2.8307-3.7382.2504-1.8134,1.9256-3.0811,3.7382-2.8302l34.2173,4.7743c1.8125.2504,3.0802,1.9248,2.8298,3.7382-.2505,1.8131-1.9248,3.0807-3.7382,2.8299l-34.2163-4.7739h0Z"/>
  <path class="cls-1" d="M481.7065,571.0264c1.4622-1.1039,3.5428-.8127,4.6467.649,1.1037,1.4618.8129,3.5426-.6492,4.6462l-27.5702,20.8198c-1.4622,1.1039-3.5428.8126-4.6468-.6491-1.1037-1.4617-.8128-3.5424.6493-4.6462l27.5702-20.8197h0Z"/>
  <path class="cls-1" d="M615.1128,470.2898c1.4622-1.1038,3.5436-.8126,4.6467.6491,1.1046,1.4618.813,3.5425-.6493,4.6462l-27.5696,20.8189c-1.4623,1.1037-3.543.8126-4.6464-.6492-1.1037-1.4618-.8129-3.5425.6492-4.6463l27.5694-20.8188h0Z"/>
  <path class="cls-1" d="M303.8319,385.0569c-1.6063.8815-3.6222.2949-4.5037-1.311-.8825-1.6055-.2951-3.6223,1.3108-4.5038l.1479-.0769c17.0366-9.4916,34.0723-18.9873,49.6538-29.085,11.3689-7.3659,22.1556-15.1953,32.1404-22.4424,3.397-2.4642,6.6778-4.8461,10.5933-7.6386,6.471-4.6143,12.5408-8.7866,18.2157-12.4232,5.7747-3.7007,11.1713-6.8771,16.202-9.4394,5.1354-2.6155,9.9432-4.6248,14.5353-5.9433,4.6925-1.3475,9.1684-1.9696,13.5441-1.779,4.3782.1912,8.5794,1.2018,12.7399,2.8127,4.0563,1.5705,8.0475,3.7003,12.1155,6.1898,4.3686,2.6723,8.8614,5.7765,12.8534,9.1168,3.4752,2.908,6.6041,6.0248,8.9955,9.2391,2.6777,3.6005,4.4012,7.2816,5.3903,11.2526.968,3.8857,1.2138,7.9975.9554,12.5533-.2504,4.4249-.9848,9.3068-2.0239,13.8632-1.0472,4.5895-2.4185,8.8971-3.9399,12.1385-1.5695,3.3421-3.3434,5.6535-5.1437,7.0913-2.5736,2.0551-5.2531,2.4967-7.6892,1.6959l-.0118-.0038c-2.2663-.742-4.1479-2.5618-5.3138-5.3306-.8933-2.124-1.3731-4.8635-1.2471-8.119.0954-2.4327.5151-5.0861.9501-7.8298.6254-3.953,1.2843-8.1185.8785-11.3282-.2979-2.3487-1.2031-4.3272-2.569-6.0067-1.4475-1.7778-3.4499-3.2739-5.8324-4.555-2.2285-1.1989-4.7638-2.1987-7.3265-3.0234-3.3537-1.0779-6.7696-1.8628-9.6507-2.4082-2.4644-.4659-4.4794-.7488-6.2319-.7037-1.569.0395-3.0109.3583-4.5346,1.075-1.6857.7938-3.5114,2.0749-5.5542,3.8295-2.1576,1.8542-4.5453,4.2299-7.2471,7.105-1.7458,1.8593-2.9579,3.1852-4.2131,4.5572-4.6231,5.0549-9.5932,10.4895-13.8348,13.9172-6.0126,4.858-10.435,5.7618-14.8541,6.6635-1.7918.3651-3.5422-.7921-3.9077-2.5836-.3647-1.7912.7925-3.5412,2.584-3.9068,3.6231-.7391,7.2479-1.479,12.0245-5.3395,3.9159-3.1638,8.6785-8.3711,13.1085-13.2156,1.6663-1.821,3.307-3.6147,4.265-4.6352,2.8451-3.0282,5.395-5.561,7.7665-7.598,2.4877-2.137,4.7924-3.7365,7.0336-4.7906,2.4042-1.1321,4.6971-1.6342,7.2084-1.6987,2.3272-.0598,4.7448.2663,7.6062.8079,3.0937.5857,6.784,1.4361,10.4568,2.6159,2.9341.9438,5.8496,2.0962,8.4416,3.4904,3.108,1.6709,5.7848,3.7043,7.8315,6.2171,2.1264,2.6123,3.5348,5.6921,3.9974,9.3551.5269,4.1551-.2088,8.7942-.9051,13.198-.4021,2.5433-.7927,5.0025-.8713,7.024-.0883,2.2651.1945,4.0462.7285,5.3164.3798.9037.8327,1.4457,1.2881,1.5953.3425.1089.8493-.0617,1.4966-.5786,1.0577-.8449,2.177-2.3642,3.2745-4.7038,1.3138-2.7996,2.5257-6.6328,3.4736-10.7887.96-4.2097,1.6378-8.7084,1.8676-12.7722.2231-3.921.0253-7.4038-.7735-10.6066-.7752-3.1166-2.1421-6.0237-4.2756-8.8905-2.0387-2.7429-4.8055-5.484-7.9286-8.0966-3.7395-3.1289-7.9521-6.0396-12.0496-8.5459-3.7765-2.3114-7.4307-4.269-11.0512-5.6706-3.5155-1.3609-7.0275-2.2127-10.6357-2.3706-3.6097-.1576-7.3959.3823-11.4429,1.5446-4.1488,1.1918-8.5651,3.0442-13.3409,5.4761-4.879,2.4848-10.0823,5.5474-15.6319,9.1025-5.647,3.6193-11.6226,7.7252-17.9559,12.2412-2.9117,2.0764-6.679,4.8114-10.5403,7.6131-9.9634,7.2311-20.7274,15.0441-32.4248,22.6234-15.7752,10.2227-32.9064,19.7711-50.0394,29.3165l-.1791.105h0Z"/>
  <path class="cls-1" d="M463.3715,297.4693c-1.7487.5374-3.6033-.4449-4.1408-2.1936-.5369-1.7488.4463-3.603,2.1934-4.1404l6.5957-2.0441,6.7761-2.0781c2.4247-.7395,4.9117-1.4925,7.4516-1.9176,2.7726-.463,5.5983-.5526,8.458.1202,2.8135.6608,5.521,2.0251,8.2541,3.8184,2.5291,1.6587,5.1131,3.7164,7.8442,5.9214,2.7289,2.2016,5.6109,4.5579,8.2067,7.2449,2.7198,2.8169,5.0773,5.952,6.5411,9.5613,1.4656,3.6085,1.9909,7.5845,1.9051,11.9257-.0811,4.1345-.7185,8.5589-1.6109,13.3029-.9055,4.8106-2.0777,9.9802-3.321,14.6496-1.2012,4.5096-2.4753,8.5791-3.6512,11.4661-1.3648,3.3538-2.7172,5.3811-4.0471,6.6079-1.8176,1.677-3.5564,2.0206-5.2366,1.9207-2.6558-.1576-4.6441-1.4711-6.6293-2.7828-.8374-.5545-1.3412-1.4231-1.4593-2.3479l-.0154-.1522c-.043-.5255.039-1.0659.2574-1.5738.0639-.1408.1244-.258.2017-.3933.2308-.3869.5287-.7092.8707-.9617l.2227-.1513c1.0668-.6625,2.4659-.6878,3.5823.0504,1.2399.8198,2.4832,1.6408,3.3585,1.6925.0844.0051.1924-.0294.3571-.1807.653-.6021,1.4256-1.8639,2.3853-4.2201,1.0866-2.6689,2.2689-6.4538,3.3908-10.6606,1.2084-4.5368,2.3445-9.5419,3.2172-14.1822.8382-4.4542,1.4349-8.5479,1.5071-12.2123.0681-3.4588-.3286-6.5705-1.4378-9.3041-1.1085-2.7323-2.9794-5.1967-5.1647-7.4588-2.3105-2.3921-5.0161-4.6022-7.582-6.6732-2.5635-2.0681-4.9845-3.9962-7.326-5.5333-2.138-1.4024-4.1707-2.4496-6.1262-2.9089-1.9054-.4486-3.8798-.3737-5.8622-.0432-2.2126.3702-4.4446,1.0459-6.6198,1.7101l-6.7508,2.0786-6.5958,2.0436h0Z"/>
  <path class="cls-1" d="M498.2178,294.5681c-1.7781.4445-3.5798-.6366-4.0243-2.4143-.4222-1.6882.531-3.3983,2.1508-3.9463,4.4472-1.8726,8.9076-3.7255,14.1891-4.3004,2.7538-.2999,5.6739-.2428,8.9286.3799,3.1845.6084,6.6672,1.7541,10.6,3.6302,4.0634,1.9373,8.6812,4.6975,13.3156,8.1506,4.0478,3.0163,8.1155,6.5788,11.8424,10.6037,3.8193,4.1252,7.2399,8.6933,10.1272,13.2936,3.1513,5.0207,5.693,10.0972,7.4489,14.7017,1.6948,4.4459,2.6866,8.535,3.0135,11.9476.3861,4.0276-.1837,7.2979-1.6416,9.3949-.1971.2832-.4265.5613-.6807.8315l-.0655.0673c-1.601,1.6545-3.7005,2.2983-6.137,1.9667-1.9008-.2583-3.9959-1.1537-6.1559-2.6562-1.0937-.7597-2.2454-1.7072-3.4358-2.8345-2.6755-2.5374-5.4801-5.9806-8.131-9.5554-2.6802-3.6139-5.076-7.1635-7.0596-10.1013l-.1568-.2332c-3.8155-5.6534-6.0701-8.9957-8.169-11.1563-.986-1.0168-1.979-1.8143-3.0156-2.4795-1.0377-.6655-2.1739-1.2221-3.428-1.7484-2.668-1.1183-5.7913-2.06-8.911-3.0004-1.7566-.5226-2.7553-2.3718-2.2332-4.1275.5232-1.7558,2.3719-2.7557,4.1282-2.233,3.3268,1.0025,6.6553,2.006,9.5869,3.235,1.544.6475,2.9991,1.3692,4.4383,2.2925,1.4386.9226,2.8159,2.0298,4.1856,3.4411,2.5559,2.6327,4.9194,6.1361,8.9207,12.0643l.1566.2332c2.0215,2.9946,4.4613,6.6084,6.879,9.8682,2.4454,3.2984,5.0039,6.4466,7.3774,8.6978.9046.8571,1.7962,1.5887,2.6563,2.1862,1.3034.9059,2.4062,1.4252,3.2491,1.5395.2622.0353.4348.0319.4954-.0135l.0539-.074c.56-.8058.7331-2.5403.4995-4.982-.2671-2.8055-1.1306-6.2906-2.6243-10.2083-1.6223-4.2547-3.9613-8.9287-6.8508-13.5341-2.7055-4.3101-5.8748-8.5516-9.3757-12.3324-3.4059-3.6784-7.1654-6.9651-10.9327-9.7726-4.2344-3.1551-8.476-5.688-12.2261-7.4756-3.4142-1.6287-6.3617-2.6079-8.9902-3.111-2.5585-.4891-4.8403-.5357-6.9828-.3026-4.3424.4728-8.332,2.1286-12.3127,3.8051-.2179.1113-.4529.1995-.7025.2622h0Z"/>
  <path class="cls-1" d="M518.7703,289.6711c-1.7835.3911-3.5481-.7352-3.9423-2.5189-.3934-1.7849.7337-3.5527,2.5184-3.946l.0251-.0054-.0011-.01c15.4936-3.3951,30.9887-6.7908,42.1071-7.1346,5.7688-.1774,10.3066.4601,14.5248,1.6644,4.1423,1.1818,7.8913,2.8848,12.2069,4.8894,4.1794,1.9409,8.9323,4.1862,13.427,6.5955,4.5469,2.4365,8.7201,5.0008,11.5642,7.5092,2.8236,2.49,4.4084,4.9849,5.1382,7.2748,1.0601,3.324.3668,6.2231-1.0651,8.2593-1.3613,1.939-3.2887,3.0697-5.8819,3.4625-2.0626.3113-4.5584.1127-7.5676-.5437-2.7236-.5946-5.9962-1.5982-9.4643-2.8046-3.3946-1.181-6.9437-2.5487-10.3282-3.9096-1.1938-.4793-2.902-1.1807-4.5269-1.8471-4.7702-1.9579-9.0075-3.6971-11.9697-4.4537-1.5979-.4081-2.7252-.4945-3.6723-.3842-.966.1122-1.9316.4573-3.0621.882-2.503.9421-5.9795,2.358-9.4585,3.7735-.1655.0673-.3332.1198-.5013.1585-1.566.3857-3.2213-.4219-3.852-1.9576-.6312-1.5357-.0241-3.2722,1.3588-4.0995.1566-.0969.3253-.1823.5017-.2543,3.3688-1.3705,6.7361-2.7411,9.6147-3.8251,1.5709-.5903,2.9398-1.0723,4.6465-1.2711,1.7227-.2013,3.6071-.0868,6.0589.5399,3.289.8399,7.789,2.6871,12.8533,4.7654,1.2912.5289,2.5958,1.0654,4.4748,1.8205,3.3342,1.3411,6.798,2.6768,10.0429,3.8058,3.1726,1.1039,6.1736,2.0235,8.6849,2.5715,2.2273.4856,3.9415.652,5.1799.465.7091-.1067,1.1836-.3389,1.4433-.71.3719-.529.5264-1.3681.1827-2.4451-.3937-1.2323-1.374-2.6881-3.2172-4.3145-2.4084-2.124-6.1505-4.406-10.2937-6.6261-4.1941-2.2484-8.9101-4.4743-13.0879-6.4148-4.0415-1.877-7.5431-3.469-11.2477-4.526-3.6269-1.0353-7.539-1.5832-12.5261-1.4299-10.389.3214-25.6396,3.6625-40.887,7.0042l-.0013-.0096h0Z"/>
  <path class="cls-1" d="M514.8443,361.6993c-1.7567.5159-3.5991-.4895-4.1148-2.2453-.515-1.7555.4904-3.5992,2.2455-4.1152,2.5311-.7496,5.0647-1.501,7.8387-2.1744,2.7711-.6711,5.6596-1.2311,8.7819-1.5605,3.1143-.3295,6.4655-.4293,9.7736-.3051,3.3138.1244,6.568.471,9.4844,1.0332,3.0703.5916,5.8425,1.4327,8.1479,2.597,2.5894,1.3072,4.6118,3.0269,5.8677,5.2563,1.3613,2.4142,1.7488,5.3265,1.0381,8.129-.6389,2.5202-2.1625,4.9501-4.6558,6.8207-2.3201,1.7407-5.4236,2.9311-8.918,3.7911-3.2951.8105-6.9165,1.3421-10.5312,1.7802l-2.6546.3097c-6.0782.7012-12.5382,1.4465-21.6231,4.2861-5.4551,1.7051-12.0097,4.2155-18.7904,6.8134-6.1529,2.3563-12.4961,4.787-18.8596,6.9051-6.5026,2.1648-12.5379,3.8159-18.1048,4.9219-5.647,1.1222-10.923,1.7071-15.8327,1.726-6.8896.0261-12.7899-1.0735-18.7546-2.1862-2.266-.423-4.5457-.8482-7.2265-1.2525-4.0655-.6135-8.3252-1.0198-13.1937-.6693-4.9139.3525-10.4985,1.4663-17.2132,3.889-6.3377,2.2878-13.7357,5.7631-21.0478,9.6413-8.4513,4.4807-16.7572,9.4967-23.166,13.8332-11.7661,7.9601-16.9774,13.5634-22.1887,19.1651-1.2467,1.3404-3.345,1.416-4.6861.169-1.34-1.2466-1.4156-3.345-.1695-4.6857,5.4802-5.8896,10.9609-11.7812,23.3313-20.1513,6.5452-4.4294,15.0718-9.5744,23.7899-14.1972,7.5075-3.981,15.1874-7.5802,21.9041-10.0045,7.3804-2.6626,13.5422-3.8887,18.9796-4.2795,5.484-.3941,10.1869.0484,14.6471.722,2.3122.3483,4.8798.8277,7.4345,1.3041,5.6768,1.0593,11.2932,2.1067,17.5596,2.0824,4.3955-.0168,9.2491-.5669,14.5619-1.6223,5.3957-1.0718,11.1596-2.6441,17.2982-4.6878,5.7273-1.9059,12.2496-4.4052,18.5745-6.8274,6.8365-2.6189,13.445-5.1504,19.1793-6.9428,9.6883-3.0278,16.4669-3.8102,22.8442-4.5459l2.6281-.3096c3.427-.4161,6.8147-.908,9.7266-1.624,2.7118-.6681,5.015-1.5131,6.5302-2.6492,1.1878-.8911,1.9034-2.0054,2.1891-3.1349.2926-1.1512.1467-2.3243-.3891-3.2747-.5671-1.006-1.6306-1.8589-3.0638-2.5825-1.716-.866-3.9059-1.5168-6.408-1.9991-2.6319-.5072-5.5399-.8189-8.4722-.9291-2.9922-.113-6.0333-.0214-8.8661.2777-2.8017.2962-5.4004.8004-7.898,1.4055-2.4941.605-5.0122,1.3513-7.5276,2.0966h0Z"/>
  <path class="cls-1" d="M593.4384,294.8789c0-1.8347,1.4882-3.3226,3.3231-3.3226s3.3232,1.4878,3.3232,3.3226c0,1.3232.0007,2.6468.66,3.8349.3954.7131,1.0274,1.4996,1.805,2.2619.7807.7664,1.6946,1.4806,2.6509,2.0466.9534.5627,1.9963.9908,3.0819,1.3487,1.2004.3963,2.4312.7039,3.6585,1.0109,1.7788.4446,2.8599,2.2463,2.4156,4.024-.4458,1.7773-2.2467,2.858-4.024,2.4138-1.3853-.3462-2.7702-.6927-4.1269-1.1399-1.4731-.4862-2.9375-1.0957-4.3794-1.9471-1.4093-.8327-2.7615-1.892-3.924-3.0328-1.2134-1.1891-2.242-2.4973-2.9471-3.7668-1.5158-2.7299-1.5168-4.8921-1.5168-7.0542h0Z"/>
  <path class="cls-1" d="M562.9196,328.6098c1.2176-1.3685,3.3163-1.4912,4.684-.2728,1.3694,1.2186,1.4925,3.3168.2736,4.6854-.7958.8961-1.5937,1.7937-2.1778,2.6588-.4701.6962-.826,1.4017-.9516,2.1181-.1391.806-.0508,1.7844.1783,2.866.2742,1.2844.7419,2.6828,1.2873,4.1201,1.1722,3.092,2.6543,6.266,4.1337,9.4384l.0096.0079c.7815,1.6558.0722,3.632-1.5836,4.413-1.6555.782-3.6328.0723-4.4135-1.5836l-.0054-.0231c-1.5623-3.35-3.126-6.7014-4.3458-9.9155-.6513-1.7189-1.2186-3.427-1.5714-5.0816-.3949-1.8579-.5248-3.6592-.2303-5.357.3113-1.787,1.045-3.3164,1.9894-4.7147.8304-1.2299,1.7782-2.2957,2.7236-3.3593h0Z"/>
  <path class="cls-1" d="M499.8627,353.6421c1.8279-.1068,3.3971,1.2884,3.5043,3.116.107,1.8278-1.2874,3.3975-3.1153,3.5047-.7407.0457-1.481.0928-2.1247.2201-.405.0798-.7533.1895-.9824.3547-.2609.1873-.5239.5217-.7823.9786-.3655.6452-.6782,1.4768-.9398,2.4596-.5899,2.2131-.9039,5.1354-1.2164,8.0551-.1929,1.8206-1.827,3.1399-3.6467,2.9467-1.8205-.193-3.1402-1.8265-2.9474-3.6467.3403-3.1769.6815-6.3559,1.398-9.0424.4054-1.5211.9327-2.8844,1.5902-4.0438.7194-1.2696,1.6072-2.3122,2.6769-3.081,1.1316-.8143,2.3378-1.2517,3.5778-1.497,1.0021-.1983,2.0058-.2619,3.0079-.3245h0Z"/>
  <path class="cls-1" d="M512.4746,346.8337c1.8013-.3579,3.5507.8097,3.9091,2.6093.3576,1.7992-.8097,3.5487-2.6101,3.9072-.1596.0319-.3172.0512-.4727.0596-1.0429.1416-2.0566.3109-2.6652.8491-.4134.3661-.8435.9673-1.2794,1.7363-.5113.9042-.9994,2.0016-1.4595,3.2142-.9878,2.6014-1.8341,5.6651-2.6787,8.7282l-.0071.0244.0071.0017-.0071.0251c-.5025,1.7636-2.339,2.7862-4.1021,2.2846-1.763-.5016-2.7858-2.3387-2.2849-4.1016l.008-.0253.0063.0016c.8904-3.2268,1.7811-6.4542,2.8534-9.2753.5727-1.5079,1.2038-2.9172,1.9021-4.1495.7752-1.3668,1.6534-2.537,2.6546-3.4232,2.0824-1.8419,4.1336-2.1815,6.1798-2.4562l.0463-.0102h0Z"/>
  <path class="cls-1" d="M772.6794,687.7281c1.6055-.8814,3.6223-.2945,4.5029,1.311.8823,1.6054.2946,3.6223-1.311,4.5038l-.1478.0772c-17.0358,9.4917-34.0715,18.987-49.653,29.0845-11.368,7.366-22.1567,15.1955-32.1412,22.4429-3.3954,2.4638-6.6761,4.8454-10.5929,7.6379-6.4696,4.6134-12.5407,8.787-18.216,12.4234-5.7732,3.7009-11.1697,6.877-16.2008,9.4397-5.1366,2.6149-9.9437,4.6247-14.5348,5.9435-4.6942,1.3476-9.1708,1.9694-13.5459,1.7787-4.3773-.1916-8.5777-1.2017-12.7391-2.8126-4.0562-1.5706-8.0467-3.7009-12.1168-6.19-4.3677-2.6722-8.8615-5.7763-12.8522-9.1168-3.4759-2.9079-6.6048-6.0247-8.9953-9.2387-2.6779-3.6008-4.4009-7.282-5.3912-11.2529-.968-3.8861-1.2131-7.9976-.9547-12.5534.2506-4.4248.985-9.3063,2.024-13.8631,1.047-4.5895,2.4185-8.897,3.94-12.1382,1.5683-3.3425,3.3425-5.6534,5.1433-7.0912,2.573-2.0555,5.2533-2.4971,7.6886-1.6963l.0125.0042c2.2672.7412,4.1471,2.5614,5.3134,5.3304.8937,2.1235,1.3727,4.8626,1.2476,8.1194-.0955,2.4327-.5157,5.0856-.9504,7.8293-.6253,3.9533-1.2857,8.1185-.8783,11.3282.2971,2.3487,1.2021,4.3272,2.569,6.0067,1.4469,1.7777,3.45,3.2736,5.8323,4.5554,2.2286,1.1983,4.7639,2.1983,7.3265,3.0231,3.3529,1.0769,6.769,1.8627,9.6508,2.408,2.4642.4656,4.4794.7487,6.2315.7041,1.5756-.0407,3.0172-.3575,4.536-1.0705,1.6845-.7992,3.5093-2.0799,5.5526-3.8346,2.1588-1.8545,4.5458-4.2298,7.2466-7.1051,1.7458-1.8587,2.9588-3.1848,4.213-4.5571,4.6231-5.0549,9.5941-10.489,13.8358-13.9172,6.0125-4.8584,10.4336-5.7614,14.8533-6.663,1.7917-.3652,3.542.7916,3.9076,2.5832.3655,1.7916-.7925,3.5412-2.5824,3.9064-3.624.7395-7.2479,1.4798-12.0252,5.3399-3.9155,3.1639-8.6786,8.3715-13.1094,13.2155-1.6654,1.8215-3.3057,3.6151-4.265,4.6357-2.8442,3.0274-5.3937,5.5598-7.7647,7.5976-2.4895,2.137-4.7933,3.7353-7.0354,4.7906h-.0108c-2.4063,1.1316-4.6942,1.6345-7.1975,1.6988-2.3274.0598-4.7445-.2668-7.6059-.808-3.0945-.5856-6.7844-1.4362-10.4571-2.6159-2.9333-.9437-5.8487-2.0962-8.4416-3.4903-3.108-1.6714-5.7848-3.7038-7.8307-6.2171-2.1256-2.611-3.5348-5.6929-3.9974-9.3556-.5274-4.1555.208-8.7937.9051-13.1976.4024-2.5432.7924-5.0024.8714-7.0239.0874-2.2652-.1945-4.0463-.7285-5.316-.3799-.9042-.8328-1.4461-1.2891-1.5957-.3421-.1088-.8501.0617-1.4966.5784-1.0576.8451-2.1761,2.3644-3.2743,4.7039-1.3139,2.8-2.5248,6.6341-3.4726,10.7887-.9606,4.2096-1.6379,8.7089-1.8682,12.7727-.2227,3.921-.0251,7.403.773,10.6062.777,3.1168,2.1438,6.0245,4.2753,8.8905,2.0398,2.7427,4.8058,5.4839,7.9293,8.0969,3.7398,3.1286,7.9525,6.0391,12.0495,8.5454,3.7769,2.311,7.4308,4.269,11.0517,5.6706,3.5152,1.3611,7.0273,2.2122,10.6353,2.3706,3.6102.1576,7.3963-.3823,11.4424-1.5445,4.1489-1.1916,8.5651-3.0445,13.3409-5.4761,4.8782-2.4853,10.0858-5.5474,15.6319-9.1025,5.6471-3.6193,11.6248-7.7256,17.956-12.2412,2.9117-2.0764,6.6789-4.8109,10.5407-7.6126,9.9631-7.2315,20.7278-15.0441,32.4269-22.6239,15.7736-10.2227,32.9039-19.7715,50.037-29.3165l.1799-.105h0Z"/>
  <path class="cls-1" d="M613.1384,775.3157c1.7491-.5374,3.6038.4449,4.1407,2.1936.5375,1.7488-.4441,3.603-2.1933,4.1403l-6.5953,2.0442-6.776,2.0781c-2.4249.7396-4.9105,1.4925-7.4512,1.9172-2.7732.4634-5.598.5531-8.4585-.1197-2.8118-.6622-5.5214-2.0253-8.254-3.8186-2.5283-1.6584-5.1124-3.7164-7.8441-5.9218-2.7271-2.2013-5.6102-4.5567-8.206-7.2446-2.7205-2.8167-5.0769-5.9521-6.542-9.5613-1.4647-3.6081-1.9904-7.5845-1.9042-11.9257.0819-4.1344.7167-8.5594,1.61-13.303.9056-4.8101,2.0786-9.9802,3.3213-14.6496,1.2018-4.5101,2.4758-8.579,3.6509-11.4656,1.366-3.3558,2.7181-5.3819,4.0479-6.6084,1.818-1.679,3.5564-2.0201,5.2365-1.9205,2.6563.1576,4.6442,1.4705,6.6286,2.7826.8375.5538,1.3416,1.4232,1.4601,2.3472l.0147.1529c.0411.5004-.0307,1.0143-.2269,1.5003-.0723.1707-.1395.3052-.2315.4669-.2314.3862-.5294.7088-.8698.9609l-.223.1516c-1.0682.6631-2.4673.6887-3.5829-.0499-1.2398-.8202-2.4832-1.6404-3.3583-1.6924-.0844-.0051-.1934.0293-.3573.1806-.6528.6029-1.4251,1.8633-2.3853,4.2205-1.0864,2.669-2.2688,6.4538-3.3906,10.6601-1.2093,4.537-2.3446,9.5429-3.2186,14.1824-.8375,4.4537-1.4328,8.547-1.5063,12.2122-.0685,3.4589.3277,6.5714,1.4378,9.3042,1.1088,2.7328,2.9799,5.1962,5.1643,7.4588,2.3105,2.3921,5.0168,4.6025,7.5828,6.6736,2.5627,2.0681,4.9844,3.9961,7.3255,5.5328,2.1382,1.4025,4.1719,2.4491,6.1262,2.9092,1.9068.4488,3.8802.3735,5.862.0424,2.2139-.3697,4.4442-1.0454,6.6202-1.7096l6.7517-2.0786,6.5937-2.0437h0Z"/>
  <path class="cls-1" d="M578.2927,778.2168c1.778-.4445,3.5806.6367,4.0243,2.4139.423,1.6887-.5303,3.3987-2.1509,3.9471-4.4471,1.8723-8.907,3.7256-14.1886,4.2999-2.7534.2997-5.6735.2429-8.9282-.3798-3.1845-.6088-6.6673-1.7538-10.6008-3.6298-4.0626-1.9378-8.6802-4.6979-13.3156-8.1513-4.047-3.016-8.1155-6.5782-11.8416-10.6034-3.8194-4.1252-7.2411-8.6929-10.1277-13.2938-3.1504-5.0214-5.6925-10.0966-7.4488-14.7017-1.6946-4.4457-2.687-8.5348-3.0134-11.9474-.3858-4.0273.1835-7.2979,1.642-9.3944.1979-.2841.426-.5627.6798-.8316l.0657-.068c1.602-1.6551,3.7008-2.2972,6.1377-1.9664,1.9009.2583,3.995,1.1538,6.1559,2.6559,1.0929.76,2.2453,1.7079,3.4348,2.8353,2.6761,2.537,5.4808,5.9803,8.1311,9.5546,2.6804,3.6138,5.0782,7.1638,7.0607,10.1018l.1566.2332c3.8147,5.6537,6.0701,8.9957,8.1681,11.1559.9877,1.0163,1.9798,1.8147,3.0173,2.4803,1.0369.665,2.1726,1.2218,3.4268,1.7479,2.6685,1.1188,5.7912,2.06,8.9109,3.0003,1.7563.5232,2.7559,2.3714,2.2328,4.1277-.5222,1.756-2.3714,2.7559-4.1273,2.2328-3.3278-1.0021-6.6564-2.0059-9.5869-3.2348-1.544-.6484-2.9991-1.3693-4.4378-2.2921-1.4391-.9231-2.8156-2.0306-4.1871-3.4412-2.5549-2.6328-4.9192-6.1366-8.9205-12.0644l-.1567-.2336c-2.0201-2.9941-4.4605-6.6081-6.8786-9.8685-2.4454-3.298-5.0033-6.4459-7.3777-8.6972-.9037-.8575-1.7962-1.5885-2.6558-2.1864-1.3039-.9056-2.4067-1.4254-3.2488-1.5392-.2648-.0357-.4348-.0314-.4962.0131l-.053.074c-.5609.8059-.7344,2.5407-.5003,4.9815.2679,2.8054,1.1315,6.2916,2.625,10.2093,1.6219,4.2542,3.9609,8.9282,6.8501,13.5336,2.7064,4.3101,5.8756,8.5515,9.3756,12.3322,3.4059,3.6787,7.1651,6.9648,10.9336,9.7728,4.2345,3.155,8.4761,5.6877,12.2252,7.476,3.4152,1.6282,6.3614,2.6076,8.9913,3.1109,2.5579.4892,4.8403.5349,6.9815.3022,4.3432-.4727,8.332-2.1281,12.313-3.8051.2189-.1109.453-.1992.7026-.2622h0Z"/>
  <path class="cls-1" d="M557.7411,783.1139c1.7826-.3912,3.5484.7353,3.9425,2.5189.3927,1.7854-.7338,3.5526-2.519,3.9463l-.0253.0055.0016.0096c-15.494,3.395-30.9894,6.7908-42.107,7.1345-5.7678.1777-10.3055-.4609-14.5258-1.6639-4.1424-1.1823-7.8916-2.8858-12.2062-4.8899-4.1786-1.9404-8.9315-4.1862-13.4269-6.5954-4.5668-2.4479-8.7479-5.013-11.5643-7.4962l-.1981-.1899c-2.699-2.4307-4.228-4.863-4.9411-7.0975-1.0596-3.3244-.3664-6.2235,1.0653-8.2597,1.3629-1.9394,3.2897-3.0706,5.8817-3.4626,2.0631-.3113,4.5586-.1135,7.5686.5438,2.7244.5941,5.9963,1.5974,9.4634,2.8041,3.3954,1.1811,6.9446,2.5487,10.329,3.91,1.1924.4799,2.9021,1.1812,4.526,1.8472,4.771,1.9584,9.0084,3.697,11.9698,4.4537,1.5987.4076,2.726.4946,3.6735.384.9644-.112,1.9312-.4575,3.0609-.8818,2.5022-.9425,5.9803-2.3581,9.4585-3.7736.1664-.0668.3331-.1193.5024-.158,1.5648-.3862,3.2199.4215,3.8509,1.9575.6312,1.5353.0248,3.2719-1.3588,4.0992-.1576.0971-.3249.1823-.5013.2541-3.3683,1.3707-6.7357,2.7417-9.6142,3.8252-1.5702.5899-2.9394,1.0723-4.6458,1.2711-1.7244.2016-3.6076.0861-6.0606-.5399-3.2891-.8399-7.7886-2.687-12.8525-4.7652-1.2912-.529-2.5959-1.0655-4.4756-1.8206-3.3341-1.3416-6.798-2.6773-10.0437-3.8063-3.1711-1.1037-6.1711-2.0235-8.6836-2.571-2.2261-.4862-3.9421-.6517-5.1798-.4652-.7089.1072-1.1824.34-1.4433.7101-.3728.5291-.5253,1.3681-.1829,2.4449.3807,1.1924,1.3118,2.5947,3.042,4.1577l.1757.1444c2.4348,2.1467,6.1717,4.4299,10.2937,6.6387,4.1933,2.2475,8.91,4.474,13.0878,6.4148,4.0415,1.8765,7.5433,3.4689,11.2474,4.526,3.6273,1.0349,7.5395,1.5832,12.5265,1.4298,10.3887-.321,25.6387-3.663,40.8867-7.0042l.0017.0097h0Z"/>
  <path class="cls-1" d="M561.6666,711.0853c1.7563-.5155,3.5995.49,4.1147,2.2457.5164,1.756-.489,3.5992-2.245,4.1148-2.5323.75-5.0659,1.5021-7.8391,2.174-2.7698.6722-5.6588,1.2314-8.7816,1.5617-3.1142.3291-6.4654.429-9.7735.3047-3.3138-.1243-6.5689-.471-9.4852-1.0328-3.0702-.592-5.8412-1.4336-8.1471-2.5974-2.5769-1.3009-4.5954-3.0214-5.855-5.256h-.0134c-1.3613-2.4151-1.748-5.3273-1.0374-8.1294.6382-2.5201,2.1625-4.95,4.655-6.8207,2.3218-1.7407,5.4243-2.9311,8.9188-3.7912,3.2934-.8105,6.9155-1.3424,10.5308-1.7802l2.6551-.3097c6.0772-.7009,12.5373-1.4471,21.6223-4.2861,5.455-1.7051,12.0096-4.2155,18.7903-6.8135,6.1536-2.3567,12.4978-4.7874,18.86-6.905,6.5042-2.1652,12.5374-3.816,18.1042-4.9215,5.6487-1.1226,10.924-1.7084,15.8336-1.7265,6.8887-.026,12.7895,1.0736,18.7546,2.1866,2.2656.4222,4.5458.8483,7.2258,1.2521,4.0652.6131,8.3256,1.0193,13.1928.6697,4.916-.3529,10.5001-1.4667,17.2139-3.889,6.3404-2.2883,13.7362-5.7635,21.0487-9.6412,8.45-4.4811,16.7571-9.4971,23.1668-13.8337,11.7636-7.9593,16.9774-13.5626,22.1879-19.1648,1.2462-1.3407,3.3449-1.416,4.6858-.1694,1.3394,1.2471,1.415,3.345.1689,4.6854-5.4803,5.8908-10.9601,11.7827-23.3307,20.1521-6.545,4.429-15.0724,9.574-23.7905,14.1966-7.5079,3.9811-15.1874,7.5803-21.9042,10.0047-7.3802,2.663-13.5412,3.8887-18.9786,4.2794-5.4831.3936-10.1882-.0492-14.647-.7214-2.3131-.3487-4.8799-.8283-7.4353-1.3043-5.6774-1.0592-11.293-2.107-17.5589-2.0827-4.3945.0164-9.2508.5668-14.5621,1.6223-5.3966,1.0718-11.1602,2.6437-17.2978,4.6875-5.7275,1.9062-12.2501,4.4055-18.5753,6.8281-6.8364,2.6185-13.444,5.15-19.1784,6.9424-9.6887,3.0277-16.4668,3.8101-22.8442,4.5458l-2.6289.3097c-3.4265.4155-6.8147.908-9.7266,1.6244-2.7109.6676-5.0142,1.513-6.5294,2.6487-1.1879.8911-1.9041,2.005-2.1895,3.1353-.292,1.1513-.1462,2.3244.3895,3.2744l-.0106.0055c.5652.9967,1.6325,1.8487,3.0744,2.577,1.7156.8658,3.905,1.5167,6.408,1.9991,2.6327.5072,5.5399.8188,8.4723.9294,2.9921.113,6.0327.0211,8.866-.2781,2.8013-.2963,5.4012-.7996,7.898-1.4059,2.4931-.6047,5.0111-1.3509,7.5272-2.0967h0Z"/>
  <path class="cls-1" d="M483.0719,777.9059c0,1.8354-1.4873,3.3232-3.3222,3.3232s-3.3231-1.4878-3.3231-3.3232c0-1.3222-.0009-2.6458-.6601-3.8349-.3963-.713-1.0283-1.4995-1.8043-2.2618-.7823-.7662-1.6953-1.4807-2.6525-2.0462-.9534-.5635-1.9962-.9907-3.0811-1.3491-1.2009-.3959-2.431-.7039-3.6597-1.0105-1.7778-.4445-2.858-2.2462-2.4142-4.0239.4441-1.7777,2.2458-2.8584,4.0238-2.4139,1.3849.3458,2.7711.6929,4.1266,1.1399,1.4739.4862,2.937,1.0946,4.3794,1.9468,1.4088.8327,2.7614,1.8924,3.9243,3.0327,1.2123,1.1892,2.2421,2.4975,2.9463,3.7669,1.5159,2.7302,1.5168,4.8924,1.5168,7.0541h0Z"/>
  <path class="cls-1" d="M513.5917,744.1752c-1.2183,1.3688-3.3159,1.4912-4.6847.2726-1.3684-1.2183-1.4925-3.3168-.2736-4.6856.7966-.8959,1.5937-1.7934,2.1781-2.6585.4697-.6962.8265-1.4008.9509-2.118.1403-.8047.0521-1.7845-.1778-2.8656-.2735-1.2844-.7424-2.6835-1.2866-4.1205-1.1731-3.0925-2.6542-6.266-4.1336-9.4383l-.0105-.008c-.7807-1.6553-.0715-3.6319,1.5844-4.413,1.6551-.7815,3.6311-.0718,4.4136,1.5836l.0045.0227c1.563,3.3501,3.1268,6.7022,4.3462,9.9165.6517,1.7189,1.2198,3.4265,1.5718,5.0815.3946,1.8575.5247,3.6576.2294,5.3571-.3105,1.7866-1.0449,3.3151-1.9895,4.7142-.8302,1.2307-1.7772,2.2954-2.7227,3.3593h0Z"/>
  <path class="cls-1" d="M576.6487,719.1429c-1.8279.1067-3.3981-1.2883-3.5043-3.116-.108-1.8278,1.2874-3.3975,3.1152-3.5047.7391-.0454,1.4802-.092,2.1257-.2201.4034-.0803.7521-.1895.9815-.3547.2601-.187.5223-.5214.7815-.9786.3655-.6449.6789-1.4768.9407-2.4592.5899-2.2122.9033-5.1349,1.2164-8.0555.1929-1.8205,1.827-3.1399,3.6467-2.9466,1.8196.1933,3.1394,1.8264,2.9474,3.647-.3413,3.1773-.6815,6.3564-1.3979,9.0421-.4055,1.5211-.9337,2.8844-1.5904,4.0437-.7193,1.2694-1.6079,2.3113-2.6773,3.0815-1.1302.8138-2.3374,1.2505-3.578,1.4966-1.0021.1988-2.0051.2622-3.007.3245h0Z"/>
  <path class="cls-1" d="M564.0355,725.9513c-1.8001.3579-3.5495-.8096-3.908-2.6088-.3579-1.7997.8097-3.5496,2.6093-3.9076.1595-.0319.3171-.0512.4727-.0597,1.0428-.1412,2.0575-.3108,2.6659-.8491.4135-.3651.8421-.9672,1.2794-1.7358.5118-.9033.998-2.0016,1.4597-3.2147.9878-2.6013,1.834-5.6647,2.6786-8.7282l.0072-.0239-.0072-.0022.0072-.0251c.5025-1.7631,2.3391-2.7862,4.1013-2.2845,1.7639.5021,2.7866,2.3387,2.2849,4.1017l-.0072.0252-.0063-.0013c-.8911,3.2265-1.7823,6.4541-2.8538,9.2753-.5727,1.5076-1.2038,2.9168-1.9026,4.1492-.7744,1.3664-1.6534,2.5373-2.6547,3.4231-2.0806,1.8419-4.1314,2.1807-6.1781,2.4562l-.0483.0102h0Z"/>
</svg>